<svg width="27" height="27" viewBox="0 0 27 27" fill="none" xmlns="http://www.w3.org/2000/svg">
<path d="M21.4785 14.8229C21.384 14.2424 20.655 13.9387 20.1353 14.1142C19.9328 13.4392 18.981 13.2434 18.522 13.7767C18.4545 13.8577 18.36 14.0939 18.3465 14.1074C18.279 14.1479 18.009 14.0602 17.8673 14.0737C17.4083 14.1142 17.0235 14.4787 16.9763 14.9377C16.8615 15.9704 17.2058 18.4814 16.848 19.2644C16.7805 19.4197 16.6523 19.5682 16.524 19.6829C16.4025 18.9944 16.8008 18.4072 16.7063 17.6984C16.605 16.9424 15.525 15.9164 14.9108 16.7939C14.7758 16.9829 14.2898 18.5084 14.2425 18.7784C14.1548 19.3589 14.2695 21.1612 14.4045 21.7484C14.5665 22.4707 15.012 23.1119 15.1808 23.8342C14.5058 24.0367 13.8578 24.9614 13.1895 25.0357C11.9408 25.1774 11.1443 24.3472 11.313 23.1052C11.3738 22.6597 12.2243 21.7349 12.4943 21.2152C13.608 19.0417 13.5473 16.0447 12.2108 13.9859C11.8463 13.4189 11.3535 13.1219 11.3063 12.3997C11.259 11.6774 11.502 11.1104 12.1433 10.7932C13.3853 10.1924 13.9658 11.1847 14.8973 11.7247C17.1518 13.0274 20.358 12.9194 22.5113 11.4614C22.923 11.1847 23.1998 10.8202 23.706 10.6919C24.948 10.3747 25.974 11.4074 25.6635 12.6494C25.5285 13.1759 25.1168 13.4932 24.8265 13.9387C23.4293 16.0717 23.3483 19.2509 24.624 21.4582C25.1303 22.3357 26.001 22.8149 25.6433 23.9827C25.488 24.4889 24.9615 24.9817 24.4283 25.0424C23.0648 25.1977 22.7205 24.0772 21.5393 23.7127L22.7475 20.9722C22.68 19.7369 22.8825 18.3262 22.761 17.1112C22.707 16.5239 22.0388 16.1189 21.4853 16.3417C21.4313 15.8827 21.5595 15.2684 21.4853 14.8297L21.4785 14.8229Z" fill="white"/>
<path d="M8.72772 4.61687C9.03147 5.03537 8.84922 6.31787 9.61872 6.14237C10.0372 6.04787 9.98997 4.94087 10.2262 4.61687C11.556 4.69112 12.9127 4.36037 14.1075 5.07587C15.525 5.91962 16.1932 8.52512 17.091 9.88862L17.1112 10.0371L14.769 10.8336C14.6002 10.8336 14.3235 10.4894 14.1547 10.3814C12.9465 9.57137 11.367 10.0506 10.7797 11.3601L5.93997 11.4074L6.05472 10.8876C6.59472 10.6244 7.68822 10.5096 8.15397 10.2059C8.36997 10.0641 8.39022 9.69962 8.24847 9.50387C8.05272 9.22712 6.47997 8.95037 6.10197 8.73437L5.47422 6.33812C5.24472 5.97362 4.80597 6.04112 4.63722 6.42587C4.48872 6.77012 4.18497 8.63312 4.07022 8.74787C3.71247 8.91662 2.08572 9.25412 1.90347 9.49037C1.70772 9.75362 1.78197 10.1114 2.07897 10.2599L4.06347 10.8944L4.18497 11.4141H1.43097V4.63037H8.72097L8.72772 4.61687Z" fill="white"/>
<path d="M22.0522 16.983C22.113 17.0437 22.113 17.1787 22.1197 17.2597C22.2142 18.4072 22.0522 19.6965 22.1062 20.8575C21.654 22.0725 20.9115 23.247 20.4525 24.4485C20.3782 24.6375 20.304 24.8265 20.3175 25.029H16.2877C16.0717 23.922 15.4035 22.8757 15.0795 21.8092C14.9242 21.2962 14.796 19.5075 14.8635 18.9675C14.8837 18.792 15.363 17.2462 15.4372 17.1585C15.4642 17.1315 15.4912 17.0977 15.525 17.0842C15.9975 17.361 16.1325 17.7255 16.0717 18.2722C16.0447 18.5355 15.8962 18.7987 15.8692 19.0755C15.8422 19.3522 15.8355 19.9665 15.8692 20.2432C15.9165 20.628 16.2945 20.7562 16.6117 20.5605C16.7535 20.4727 17.3137 19.7707 17.4015 19.602C17.8807 18.657 17.523 16.2742 17.6175 15.0997C17.658 14.5935 18.1912 14.634 18.252 14.9445V19.2375C18.2925 19.5682 18.5625 19.7775 18.8392 19.5075L18.9337 14.3032C19.0755 13.9792 19.5817 14.1007 19.5682 14.472L19.6222 19.5075C19.8855 19.764 20.1285 19.602 20.2095 19.2915L20.2635 14.8365C20.4592 14.6272 20.8102 14.7082 20.844 15.0052C20.9452 16.3687 20.7225 17.901 20.844 19.2442C20.8912 19.7572 21.3907 19.7437 21.4717 19.3927L21.492 17.1382C21.5527 16.929 21.9172 16.8682 22.0522 17.01V16.983Z" fill="white"/>
<path d="M12.5752 18.7718H1.43774V17.2868L11.2725 17.2328C11.5492 17.2126 11.8597 17.01 11.9475 16.74C12.0352 16.47 12.0217 15.4103 11.907 15.1605C11.6437 14.58 10.449 14.7285 9.88874 14.7353C9.74699 14.7353 9.61874 14.7893 9.47024 14.7961C6.79049 14.8231 4.11074 14.7691 1.43774 14.7961V12.0421H4.32674C4.58999 12.3931 4.46174 13.5271 5.06924 13.5271C5.67674 13.5271 5.59574 12.4201 5.81849 12.0353L10.611 12.0083C10.6987 12.0691 10.6515 12.528 10.6717 12.69C10.773 13.3718 11.4952 13.986 11.8327 14.6003C12.5212 15.8625 12.744 17.3475 12.5685 18.7718H12.5752Z" fill="white"/>
<path d="M1.43774 16.6524V15.4307L11.3535 15.4577V16.5174L1.43774 16.6524Z" fill="white"/>
<path d="M20.817 7.68815C20.871 7.72865 20.8778 7.7354 20.8778 7.79615C20.8778 8.0729 20.682 8.90315 20.4458 9.06515C20.2433 9.2069 18.7718 9.7874 18.5153 9.83465C18.3803 9.8549 17.82 9.8954 17.766 9.8279L17.091 8.44415L17.5298 7.6814H20.817V7.68815Z" fill="white"/>
<path d="M7.32374 9.76035C7.32374 9.8346 7.24949 9.8481 7.19549 9.86835C6.88499 9.9966 5.73074 10.2396 5.57549 10.4218C5.40674 10.6108 5.17049 12.2038 5.07599 12.1971C4.89374 11.7111 4.85999 11.0496 4.67774 10.5838C4.49549 10.1181 3.23999 10.1113 2.87549 9.76035C3.20624 9.62535 4.42124 9.39585 4.60349 9.17985C4.78574 8.96385 4.98149 7.37085 5.07599 7.37085L5.55524 9.1731L7.33049 9.76035H7.32374Z" fill="white"/>
<path d="M19.1498 11.9271C18.1575 12.0621 17.037 11.9069 16.0988 11.5559C15.8963 11.4816 15.6195 11.4006 15.4913 11.2386L17.6243 10.5569C18.2183 10.9079 18.7515 11.3601 19.1498 11.9271Z" fill="white"/>
<path d="M11.0363 3.13215L9.82126 3.5844L9.47701 4.77915L9.13276 3.5844L7.91101 3.1659L9.15976 2.71365L9.47701 1.5459C9.55801 1.5459 9.67951 2.5314 9.82126 2.68665C9.99676 2.88915 10.773 3.01065 11.043 3.1389L11.0363 3.13215Z" fill="white"/>
</svg>
