<svg width="26" height="27" viewBox="0 0 26 27" fill="none" xmlns="http://www.w3.org/2000/svg">
<path d="M1.77217 10.1958C1.99095 8.76302 4.27362 8.68093 4.42677 10.36C4.59451 12.2779 4.28821 14.4569 4.42677 16.4121C4.47053 16.815 5.05396 16.927 5.24358 16.5762C5.39673 16.3001 5.27275 14.7778 5.30921 14.3226C5.38944 13.0838 5.89264 11.8674 6.57088 10.86L6.19165 10.4197L9.71411 6.79293C10.0861 6.16608 10.0277 5.32282 9.50262 4.81537L12.3177 1.88261C12.3614 1.8453 12.3833 1.86022 12.4271 1.88261C12.6167 1.98709 13.3533 2.95721 13.4991 2.92736L15.0452 1.41248L16.7882 3.24078L16.6278 3.42735C16.5986 3.56913 17.5467 4.32284 17.6488 4.52433C17.6706 4.56911 17.6852 4.59149 17.6488 4.63627L15.0452 7.29291L13.9732 6.16608C13.9075 6.12876 13.0907 7.11381 12.9449 7.17351C12.7698 7.24067 12.6531 6.80785 12.5146 6.73323L7.57001 11.7928L7.46061 11.8152C7.44603 11.7331 7.25641 11.5167 7.17619 11.5615C6.62193 12.3898 6.2427 13.442 6.17707 14.442C6.12602 15.1882 6.3521 16.4494 5.97287 17.0613C5.26546 18.1881 3.63914 17.7255 3.52246 16.427C3.35472 14.5091 3.66102 12.3301 3.52246 10.3749C3.43494 9.79284 2.64002 10.0018 2.64002 10.3152V19.5015H3.08488V20.4045H1.32001V19.5015H1.76487V10.2033L1.77217 10.1958Z" fill="white"/>
<path d="M25.5907 11.3524L24.6499 23.0536C24.2488 22.6058 23.8477 22.2178 23.2862 21.9939C23.1184 21.9268 22.6225 21.7551 22.4694 21.7551H19.4574V15.8448C19.4574 14.0837 21.7109 11.3524 23.5195 11.3524H25.5907Z" fill="white"/>
<path d="M24.3144 24.9268H15.2275L13.4334 23.1433L9.7797 23.091C9.53174 22.3821 10.2173 21.5985 10.9174 21.5836C12.675 21.7627 14.6076 22.509 16.336 22.6582C18.2249 22.8224 20.3544 22.5015 22.2505 22.6582C23.4174 22.7552 24.3144 23.7253 24.3217 24.9193L24.3144 24.9268Z" fill="white"/>
<path d="M22.3672 0.509444C22.7465 0.442281 24.0592 0.449744 24.4457 0.501981C24.8906 0.561681 25.1604 0.927343 25.1969 1.36763C25.2698 2.25566 25.2917 4.23322 25.1969 5.09887C25.1458 5.54662 24.8322 5.86751 24.3947 5.91974C23.9571 5.97198 22.8267 5.97198 22.411 5.91974C21.9661 5.86004 21.6963 5.49438 21.6598 5.0541C21.5577 3.85264 21.7401 2.487 21.6598 1.27062C21.7109 0.912418 22.0099 0.576606 22.36 0.516906L22.3672 0.509444Z" fill="white"/>
<path d="M24.154 25.8297C23.9425 26.2253 23.556 26.4864 23.1476 26.6357C19.3699 26.8521 15.5484 26.6805 11.7561 26.7252C10.5017 26.576 10.4507 24.9641 10.0641 24.0164H13.0761L14.8993 25.8223H24.154V25.8297Z" fill="white"/>
<path d="M3.09947 21.3074V22.2402C3.09947 23.6208 4.82059 25.3744 6.16249 25.3744H7.0741V26.4192C7.0741 26.4864 6.83343 26.7326 6.76779 26.7326H3.75583C4.17882 25.867 3.96733 24.7849 3.12865 24.2924C1.50963 23.3372 -0.167736 25.0685 0.663653 26.7326H0V22.0089C0 21.785 0.466745 21.2999 0.692824 21.2999H3.09947V21.3074Z" fill="white"/>
<path d="M25.6418 10.4495H23.5123C23.3664 10.4495 22.8997 10.5689 22.7319 10.6137C22.1922 10.7555 21.6963 11.0017 21.2223 11.3002V9.74803C21.2223 9.74803 21.339 9.43461 21.3681 9.38237C21.5286 9.06148 21.9224 8.73313 22.2725 8.66597C22.6809 8.58388 24.0811 8.59135 24.5114 8.64358C25.3501 8.75552 25.773 9.65102 25.6491 10.4495H25.6418Z" fill="white"/>
<path d="M7.023 24.4715H6.22079C5.29459 24.4715 3.98187 23.1357 3.98187 22.1805V21.3596C5.54984 21.4939 6.88444 22.8745 7.023 24.4715Z" fill="white"/>
<path d="M6.25001 2.87511C6.33752 3.77807 6.77509 4.26314 7.60648 4.51686C7.6867 4.53925 7.70129 4.47955 7.68671 4.6288C7.13974 4.65118 6.61465 5.1064 6.40316 5.60638C6.31564 5.80787 6.30835 5.98697 6.25001 6.18846C6.22813 6.27054 6.27918 6.28547 6.14061 6.27054C6.0531 5.36758 5.61553 4.88252 4.78414 4.6288C4.70392 4.60641 4.68933 4.66611 4.70392 4.51686C5.24359 4.49447 5.77597 4.0318 5.98746 3.53927C6.07498 3.33779 6.08227 3.15869 6.14061 2.9572C6.16249 2.87511 6.11144 2.86019 6.25001 2.87511Z" fill="white"/>
<path d="M2.03468 24.9342C3.27447 24.7253 3.45679 26.5386 2.39203 26.7177C1.15224 26.9267 0.969922 25.1133 2.03468 24.9342Z" fill="white"/>
<path d="M13.3241 17.0089C13.3824 17.4418 13.5574 17.8224 13.9148 18.0761L14.4326 18.3074C14.0169 18.3373 13.6668 18.6283 13.4845 19.0014C13.4116 19.1507 13.397 19.3298 13.3313 19.4716C13.3022 19.5387 13.3605 19.576 13.2147 19.5537C13.1636 19.1358 12.9594 18.7402 12.6239 18.4865L12.1061 18.2552C12.5145 18.2477 12.8792 17.9194 13.0542 17.5612C13.1271 17.4119 13.1417 17.2328 13.2074 17.091C13.2365 17.0239 13.1782 16.9866 13.3241 17.0089Z" fill="white"/>
<path d="M23.8769 6.8302H22.9944V7.73316H23.8769V6.8302Z" fill="white"/>
</svg>
