<svg width="26" height="26" viewBox="0 0 26 26" fill="none" xmlns="http://www.w3.org/2000/svg">
<path d="M14.404 1.84595H11.908V24.1929H14.404V1.84595Z" fill="white"/>
<path d="M18.1415 16.6724V20.7804L15.1905 19.3504V15.2424L18.1415 16.6724Z" fill="white"/>
<path d="M11.128 15.2424V19.3504L8.17047 20.7804V16.7374L11.128 15.2424Z" fill="white"/>
<path d="M8.17047 15.9771V11.8886L11.128 10.3936V14.4756L8.17047 15.9771Z" fill="white"/>
<path d="M18.1415 15.9771L15.1905 14.4756V10.3936L18.1415 11.8886V15.9771Z" fill="white"/>
<path d="M11.128 5.59009V9.69809L8.17047 11.1281V7.02009L11.128 5.59009Z" fill="white"/>
<path d="M18.1415 7.02009V11.1281L15.1905 9.69809V5.59009L18.1415 7.02009Z" fill="white"/>
<path d="M11.128 1.84595V4.82295L8.17047 6.32445V3.30195C8.17047 2.74295 8.91797 1.84595 9.48347 1.84595H11.1215H11.128Z" fill="white"/>
<path d="M18.1415 6.27895L15.184 4.84895V1.84595H16.822C17.4005 1.84595 18.135 2.73645 18.135 3.30195V6.27895H18.1415Z" fill="white"/>
<path d="M15.1905 20.085L18.1415 21.5215C18.161 22.373 18.2715 23.2895 17.524 23.868C17.407 23.959 16.965 24.193 16.835 24.193H15.197V20.085H15.1905Z" fill="white"/>
<path d="M11.128 20.085V24.193H9.49003C9.34053 24.193 8.87903 23.933 8.74903 23.8225C8.04052 23.231 8.17052 22.3535 8.17702 21.5215L11.128 20.085Z" fill="white"/>
</svg>
